<svg width="77" height="77" viewBox="0 0 77 77" fill="none" xmlns="http://www.w3.org/2000/svg">
<path d="M38.2764 70.7702C20.3594 70.7702 5.7832 56.1934 5.7832 38.2759C5.7832 20.3584 20.3594 5.78223 38.2764 5.78223C56.1944 5.78223 70.7706 20.359 70.7706 38.2759C70.7706 56.1929 56.1939 70.7702 38.2764 70.7702ZM38.2764 7.39489C21.2493 7.39489 7.39533 21.2482 7.39533 38.2765C7.39533 55.3047 21.2493 69.1586 38.2764 69.1586C55.3046 69.1586 69.1585 55.3047 69.1585 38.2765C69.1585 21.2482 55.3046 7.39489 38.2764 7.39489Z" fill="white"/>
<path d="M38.2759 76.5524C17.1703 76.5524 0 59.3816 0 38.2759C0 17.1703 17.1703 0 38.2759 0C59.3827 0 76.5518 17.1703 76.5518 38.2759C76.5518 59.3816 59.3822 76.5524 38.2759 76.5524ZM38.2759 1.61268C18.0601 1.61268 1.61212 18.0595 1.61212 38.2759C1.61212 58.4923 18.0595 74.9397 38.2759 74.9397C58.4929 74.9397 74.9397 58.4923 74.9397 38.2759C74.9397 18.0595 58.4929 1.61268 38.2759 1.61268Z" fill="white"/>
<path d="M64.574 56.8814H12.437C12.1529 56.8814 11.8911 56.7327 11.7446 56.4892C11.5993 56.2462 11.5932 55.9444 11.7263 55.6942L37.7954 7.05269C37.9352 6.79085 38.2082 6.6272 38.505 6.6272C38.8029 6.6272 39.0758 6.79085 39.2156 7.05269L65.2847 55.6942C65.4178 55.9444 65.4117 56.2462 65.2653 56.4892C65.1199 56.7327 64.857 56.8814 64.574 56.8814ZM13.7834 55.2687H63.2271L38.5044 9.14024L13.7834 55.2687Z" fill="white"/>
<path d="M56.0882 65.3748C55.9584 65.3748 55.8269 65.3431 55.7077 65.2793L7.06556 39.2108C6.80427 39.0705 6.64062 38.7975 6.64062 38.5002C6.64062 38.2034 6.80427 37.9299 7.06556 37.7895L55.7077 11.7216C55.9579 11.5868 56.2602 11.5945 56.5032 11.7404C56.7461 11.8858 56.8954 12.1482 56.8954 12.4322V64.5687C56.8954 64.8522 56.7456 65.1151 56.5032 65.2605C56.3756 65.3365 56.2324 65.3748 56.0882 65.3748ZM9.15365 38.5002L55.2816 63.2217V13.7786L9.15365 38.5002Z" fill="white"/>
<path d="M20.4604 65.3748C20.3161 65.3748 20.173 65.3371 20.0454 65.2605C19.8024 65.1152 19.6543 64.8522 19.6543 64.5687V12.4323C19.6543 12.1488 19.803 11.8858 20.0454 11.7405C20.2895 11.5951 20.5913 11.5868 20.8409 11.7216L69.483 37.7896C69.7443 37.9299 69.9091 38.2034 69.9091 38.5002C69.9091 38.7976 69.7443 39.0705 69.483 39.2109L20.8409 65.2794C20.7228 65.3437 20.5918 65.3748 20.4604 65.3748ZM21.2664 13.7786V63.2218L67.3944 38.5002L21.2664 13.7786Z" fill="white"/>
<path d="M38.505 69.9254C38.2082 69.9254 37.9352 69.7617 37.7954 69.4999L11.7263 20.8578C11.5932 20.6081 11.5993 20.3063 11.7446 20.0628C11.8911 19.8198 12.1529 19.6711 12.437 19.6711H64.574C64.857 19.6711 65.1199 19.8198 65.2653 20.0628C65.4117 20.3063 65.4178 20.6081 65.2847 20.8578L39.2156 69.4999C39.0758 69.7617 38.8029 69.9254 38.505 69.9254ZM13.7834 21.2838L38.505 67.4123L63.2277 21.2838H13.7834Z" fill="white"/>
<path d="M55.0346 37.47H45.3652L45.404 39.0821L55.0346 39.0826V37.47Z" fill="white"/>
<path d="M50.0768 28.6084L48.9911 27.4167L43.291 32.6126L44.2868 33.8869L50.0768 28.6084Z" fill="white"/>
<path d="M37.4688 55.0108L39.0825 55.033L39.2057 46.1042L37.5925 46.1758L37.4688 55.0108Z" fill="white"/>
<path d="M49.7662 48.5978L44.4599 43.3032L43.1562 44.2807L48.6273 49.7395L49.7662 48.5978Z" fill="white"/>
<path d="M27.4141 48.9574L28.5813 50.0702L33.979 44.4111L32.8923 43.2151L27.4141 48.9574Z" fill="white"/>
<path d="M22.4824 37.6941V39.3068H30.9469L30.6107 37.6941H22.4824Z" fill="white"/>
<path d="M28.2307 27.0967L27.0918 28.2378L32.099 33.24L33.294 32.1555L28.2307 27.0967Z" fill="white"/>
<path d="M39.3113 22.1016H37.6992V30.7607L39.3113 30.6204V22.1016Z" fill="white"/>
<path d="M38.2758 46.8424C33.5526 46.8424 29.7109 42.9996 29.7109 38.2764C29.7109 33.5527 33.5532 29.7104 38.2758 29.7104C43.0001 29.7104 46.8429 33.5527 46.8429 38.2764C46.8429 42.9996 42.9996 46.8424 38.2758 46.8424ZM38.2758 31.322C34.4425 31.322 31.3219 34.4414 31.3219 38.2759C31.3219 42.1104 34.4425 45.2292 38.2758 45.2292C42.1103 45.2292 45.2297 42.1098 45.2297 38.2759C45.2297 34.442 42.1103 31.322 38.2758 31.322Z" fill="white"/>
</svg>
