<svg width="78" height="67" viewBox="0 0 78 67" fill="none" xmlns="http://www.w3.org/2000/svg">
<path d="M57.9504 66.9169H19.3166L19.0836 66.5135L0 33.4584L19.3166 0H57.9504L58.1834 0.40331L77.268 33.4584L57.9504 66.9169ZM20.2475 65.3042H57.0206L75.4057 33.4584L57.0206 1.61268H20.2475L1.86123 33.4584L20.2475 65.3042Z" fill="white"/>
<path d="M54.9028 61.6367H22.3664L6.09766 33.459L22.3664 5.28125H54.9028L71.1705 33.459L54.9028 61.6367ZM23.2967 60.024H53.9719L69.3088 33.459L53.9719 6.89337H23.2967L7.95997 33.459L23.2967 60.024Z" fill="white"/>
<path d="M54.9028 61.6367H22.3664L6.09766 33.459L22.3664 5.28125H54.9028L71.1705 33.459L54.9028 61.6367ZM23.2967 60.024H53.9719L69.3088 33.459L53.9719 6.89337H23.2967L7.95997 33.459L23.2967 60.024Z" fill="white"/>
<path d="M23.5297 5.68408L22.1328 6.49014L31.1121 22.0433L32.2932 20.8628L23.5297 5.68408Z" fill="white"/>
<path d="M55.1355 60.4272L46.296 45.116L44.8281 45.7989L53.7386 61.2333L55.1355 60.4272Z" fill="white"/>
<path d="M22.1328 60.4273L23.5297 61.2334L32.3431 45.9687L30.888 45.2642L22.1328 60.4273Z" fill="white"/>
<path d="M53.7389 5.68408L44.6875 21.3615L46.2009 21.9662L55.1358 6.49014L53.7389 5.68408Z" fill="white"/>
<path d="M25.1457 32.6523H7.02734V34.265H25.1457V32.6523Z" fill="white"/>
<path d="M70.2401 32.6523H52.4336V34.265H70.2401V32.6523Z" fill="white"/>
<path d="M46.302 46.741H30.9647L23.2969 33.459L30.9647 20.1765H46.3015L53.9693 33.459L46.302 46.741ZM31.8956 45.1278H45.3712L52.1087 33.4585L45.3712 21.7886H31.8956L25.1586 33.4585L31.8956 45.1278Z" fill="white"/>
<path d="M23.4126 33.4158L22.0176 60.7874L23.6276 60.8694L25.0226 33.4979L23.4126 33.4158Z" fill="white"/>
<path d="M54.1432 33.4017L52.5332 33.4839L53.931 60.8554L55.541 60.7732L54.1432 33.4017Z" fill="white"/>
<path d="M53.7817 6.57966L52.3867 33.9512L53.9967 34.0332L55.3918 6.66171L53.7817 6.57966Z" fill="white"/>
<path d="M23.4914 6.56326L21.8809 6.64551L23.2786 34.017L24.8892 33.9348L23.4914 6.56326Z" fill="white"/>
<path d="M23.9688 5.92898L23.0957 7.28491L45.4036 21.6492L46.2767 20.2933L23.9688 5.92898Z" fill="white"/>
<path d="M45.4341 46.4656L22.9785 60.1536L23.8179 61.5306L46.2735 47.8427L45.4341 46.4656Z" fill="white"/>
<path d="M62.4064 20.4672L52.6504 32.9441L53.9204 33.9372L63.6764 21.4602L62.4064 20.4672Z" fill="white"/>
<path d="M14.8626 20.494L13.6074 21.5056L22.9044 33.0412L24.1595 32.0297L14.8626 20.494Z" fill="white"/>
<path d="M23.3626 33.0671L14.8359 47.8306L16.2324 48.6371L24.759 33.8736L23.3626 33.0671Z" fill="white"/>
<path d="M53.8147 33.4523L52.5996 34.512L62.4493 45.8062L63.6643 44.7466L53.8147 33.4523Z" fill="white"/>
<path d="M40.6403 5.78144L39.1523 6.40161L45.0778 20.6184L46.5658 19.9982L40.6403 5.78144Z" fill="white"/>
<path d="M45.0896 47.2325L40.3086 60.563L41.8276 61.1078L46.6087 47.7773L45.0896 47.2325Z" fill="white"/>
</svg>
