<svg width="73" height="68" viewBox="0 0 73 68" fill="none" xmlns="http://www.w3.org/2000/svg">
<path d="M62.2311 62.1471H10.0951C9.81111 62.1471 9.54871 61.9984 9.40336 61.7549C9.25802 61.5119 9.2508 61.2101 9.3845 60.9605L35.453 12.3173C35.5934 12.0549 35.8663 11.8923 36.1631 11.8923C36.461 11.8923 36.7334 12.0549 36.8743 12.3173L62.9423 60.9605C63.0765 61.2095 63.0693 61.5119 62.9234 61.7549C62.777 61.999 62.514 62.1471 62.2311 62.1471ZM11.441 60.535H60.8836L36.162 14.4059L11.441 60.535Z" fill="white"/>
<path d="M71.5225 67.5898H0.80608C0.5226 67.5898 0.259645 67.4411 0.114299 67.1976C-0.031047 66.9546 -0.0382569 66.6528 0.0954392 66.4032L35.4539 0.424955C35.5943 0.163665 35.8672 0 36.164 0C36.4619 0 36.7343 0.163665 36.8752 0.424955L72.2337 66.4032C72.3679 66.6522 72.3607 66.9546 72.2142 67.1976C72.0689 67.4411 71.8059 67.5898 71.5225 67.5898ZM2.15247 65.9771H70.1755L36.164 2.51306L2.15247 65.9771Z" fill="white"/>
<path d="M36.9715 12.699H35.3594V61.3411H36.9715V12.699Z" fill="white"/>
<path d="M50.4977 39.4268L9.72461 60.6313L10.4687 62.0621L51.2418 40.8575L50.4977 39.4268Z" fill="white"/>
<path d="M21.3648 39.4292L20.6211 40.8596L61.3988 62.0596L62.1425 60.6292L21.3648 39.4292Z" fill="white"/>
<path d="M36.4219 61.7444C27.7577 61.7444 20.709 54.6962 20.709 46.0315C20.709 37.3679 27.7577 30.3186 36.4219 30.3186C45.0861 30.3186 52.1348 37.3679 52.1348 46.0315C52.1348 54.6957 45.0861 61.7444 36.4219 61.7444ZM36.4219 31.9313C28.6464 31.9313 22.3217 38.2555 22.3217 46.0309C22.3217 53.8064 28.647 60.1317 36.4219 60.1317C44.1968 60.1317 50.5221 53.8064 50.5221 46.0309C50.5221 38.256 44.1968 31.9313 36.4219 31.9313Z" fill="white"/>
<path d="M36.1644 48.5944C36.1611 48.5944 36.1572 48.5944 36.1539 48.5944C35.8648 48.59 35.6002 48.4318 35.4598 48.1794L27.6777 34.1868L29.0874 33.4024L36.186 46.1673L43.825 33.2532L45.213 34.0742L36.8589 48.1989C36.7136 48.4441 36.449 48.5944 36.1644 48.5944Z" fill="white"/>
<path d="M50.8705 47.3162H22.2168V48.9283H50.8705V47.3162Z" fill="white"/>
<path d="M42.9097 59.5497L36.1905 49.2956L29.9506 59.527L28.5742 58.6882L35.4776 47.3679C35.6218 47.1316 35.8765 46.9862 36.1527 46.9812C36.4473 46.9823 36.6886 47.1144 36.8401 47.3462L44.2594 58.6655L42.9097 59.5497Z" fill="white"/>
</svg>
