<svg width="77" height="77" viewBox="0 0 77 77" fill="none" xmlns="http://www.w3.org/2000/svg">
<path d="M54.5454 66.4545H22.0084L5.74023 38.2768L22.0084 10.0991H54.5454L70.8136 38.2768L54.5454 66.4545ZM22.9393 64.8419H53.614L68.9513 38.2763L53.614 11.7107H22.9393L7.602 38.2768L22.9393 64.8419Z" fill="white"/>
<path d="M38.2769 70.7702C20.36 70.7702 5.7832 56.1934 5.7832 38.2765C5.7832 20.359 20.36 5.78223 38.2769 5.78223C56.1944 5.78223 70.7712 20.359 70.7712 38.2765C70.7712 56.1934 56.1944 70.7702 38.2769 70.7702ZM38.2769 7.39489C21.2492 7.39489 7.39588 21.2483 7.39588 38.277C7.39588 55.3047 21.2492 69.1586 38.2769 69.1586C55.3051 69.1586 69.1585 55.3047 69.1585 38.277C69.1585 21.2483 55.3051 7.39489 38.2769 7.39489Z" fill="white"/>
<path d="M38.2759 76.5524C17.1708 76.5524 0 59.3822 0 38.2765C0 17.1708 17.1708 0 38.2759 0C59.3822 0 76.5524 17.1702 76.5524 38.2765C76.5524 59.3822 59.3822 76.5524 38.2759 76.5524ZM38.2759 1.61268C18.0601 1.61268 1.61267 18.0595 1.61267 38.2765C1.61267 58.4929 18.0601 74.9403 38.2759 74.9403C58.4929 74.9403 74.9397 58.4929 74.9397 38.2765C74.9397 18.0601 58.4929 1.61268 38.2759 1.61268Z" fill="white"/>
<path d="M52.9901 10.4053L43.9043 26.6003L45.2873 27.4302L54.3958 11.1941L52.9901 10.4053Z" fill="white"/>
<path d="M25.0183 37.47H6.58984V39.0821H25.0183V37.47Z" fill="white"/>
<path d="M69.9665 37.47H51.2695V39.0821H69.9665V37.47Z" fill="white"/>
<path d="M21.6094 65.2419L23.0024 66.0546L32.294 50.1303L30.8028 49.4868L21.6094 65.2419Z" fill="white"/>
<path d="M54.7802 65.245L45.5263 49.2175L44.0762 49.9304L53.3833 66.0516L54.7802 65.245Z" fill="white"/>
<path d="M23.8127 10.2153L22.9707 11.5901L45.2308 25.2233L46.0728 23.8485L23.8127 10.2153Z" fill="white"/>
<path d="M53.976 11.7339H52.3633V38.2767H53.976V11.7339Z" fill="white"/>
<path d="M68.3579 38.3916L45.7852 51.271L46.5844 52.6718L69.1572 39.7923L68.3579 38.3916Z" fill="white"/>
<path d="M30.6931 51.2583L29.8848 52.6531L52.7623 65.911L53.5706 64.5162L30.6931 51.2583Z" fill="white"/>
<path d="M22.5749 38.251L21.498 64.0527L23.1087 64.12L24.1856 38.3182L22.5749 38.251Z" fill="white"/>
<path d="M30.4176 24.6916L7.14453 37.5676L7.92522 38.9787L31.1983 26.1027L30.4176 24.6916Z" fill="white"/>
<path d="M38.2769 53.9741C29.6216 53.9741 22.5801 46.932 22.5801 38.2767C22.5801 29.6209 29.6216 22.5793 38.2769 22.5793C46.9327 22.5793 53.9748 29.6214 53.9748 38.2767C53.9748 46.932 46.9327 53.9741 38.2769 53.9741ZM38.2769 24.1915C30.5109 24.1915 24.1922 30.5101 24.1922 38.2767C24.1922 46.0427 30.5109 52.362 38.2769 52.362C46.044 52.362 52.3621 46.0433 52.3621 38.2767C52.3621 30.5101 46.0435 24.1915 38.2769 24.1915Z" fill="white"/>
<path d="M45.5861 50.9346H30.9699L23.6621 38.2767L30.9699 25.6189H45.5861L52.8939 38.2767L45.5861 50.9346ZM31.9013 49.3219H44.6546L51.0321 38.2767L44.6546 27.231H31.9013L25.5244 38.2767L31.9013 49.3219Z" fill="white"/>
<path d="M42.6866 45.9112H33.871L29.4629 38.2766L33.871 30.6421H42.6866L47.0941 38.2766L42.6866 45.9112ZM34.8019 44.2985H41.7557L45.2324 38.2766L41.7557 32.2548H34.8019L31.3252 38.2766L34.8019 44.2985Z" fill="white"/>
</svg>
