<svg width="78" height="67" viewBox="0 0 78 67" fill="none" xmlns="http://www.w3.org/2000/svg">
<path d="M57.9515 66.9169H19.3166L19.0836 66.5136L0 33.459L19.3166 0H57.9515L58.1833 0.403877L77.268 33.4584L57.9515 66.9169ZM20.2475 65.3047H57.0206L75.4057 33.4595L57.0206 1.61436H20.2475L1.86121 33.4595L20.2475 65.3047Z" fill="white"/>
<path d="M54.9017 61.6367H22.3664L6.09766 33.459L22.3664 5.28125H54.9017L71.1716 33.459L54.9017 61.6367ZM23.2967 60.0245H53.972L69.3087 33.459L53.972 6.89337H23.2967L7.95885 33.459L23.2967 60.0245Z" fill="white"/>
<path d="M23.4323 48.3053C15.2452 48.3053 8.58594 41.6449 8.58594 33.4578C8.58594 25.2718 15.2452 18.6125 23.4323 18.6125C31.6194 18.6125 38.2798 25.2718 38.2798 33.4578C38.2798 41.6449 31.6194 48.3053 23.4323 48.3053ZM23.4323 20.2252C16.135 20.2252 10.1986 26.1617 10.1986 33.4584C10.1986 40.7567 16.135 46.6932 23.4323 46.6932C30.7296 46.6932 36.6671 40.7567 36.6671 33.4584C36.6677 26.1617 30.7301 20.2252 23.4323 20.2252Z" fill="white"/>
<path d="M31.5291 61.6367C23.342 61.6367 16.6816 54.9763 16.6816 46.7893C16.6816 38.6033 23.342 31.9429 31.5291 31.9429C39.7162 31.9429 46.3766 38.6033 46.3766 46.7893C46.3766 54.9763 39.7162 61.6367 31.5291 61.6367ZM31.5291 33.5555C24.2308 33.5555 18.2943 39.4931 18.2943 46.7898C18.2943 54.0882 24.2308 60.0246 31.5291 60.0246C38.8264 60.0246 44.7639 54.0882 44.7639 46.7898C44.7639 39.4931 38.8264 33.5555 31.5291 33.5555Z" fill="white"/>
<path d="M46.3796 61.6367C38.1936 61.6367 31.5332 54.9763 31.5332 46.7893C31.5332 38.6033 38.1936 31.9429 46.3796 31.9429C54.5667 31.9429 61.2282 38.6033 61.2282 46.7893C61.2276 54.9763 54.5661 61.6367 46.3796 61.6367ZM46.3796 33.5555C39.0823 33.5555 33.1459 39.4931 33.1459 46.7898C33.1459 54.0882 39.0823 60.0246 46.3796 60.0246C53.6779 60.0246 59.6149 54.0882 59.6149 46.7898C59.6144 39.4931 53.6779 33.5555 46.3796 33.5555Z" fill="white"/>
<path d="M53.5135 48.3053C45.3264 48.3053 38.666 41.6449 38.666 33.4578C38.666 25.2718 45.3264 18.6125 53.5135 18.6125C61.7006 18.6125 68.361 25.2718 68.361 33.4578C68.361 41.6449 61.7006 48.3053 53.5135 48.3053ZM53.5135 20.2252C46.2163 20.2252 40.2793 26.1617 40.2793 33.4584C40.2793 40.7567 46.2157 46.6932 53.5135 46.6932C60.8108 46.6932 66.7483 40.7567 66.7483 33.4584C66.7483 26.1617 60.8108 20.2252 53.5135 20.2252Z" fill="white"/>
<path d="M45.5701 34.9751C37.3831 34.9751 30.7227 28.3147 30.7227 20.1276C30.7227 11.9417 37.3831 5.28125 45.5701 5.28125C53.7561 5.28125 60.4176 11.9417 60.4176 20.1276C60.4176 28.3147 53.7561 34.9751 45.5701 34.9751ZM45.5701 6.89337C38.2718 6.89337 32.3353 12.8298 32.3353 20.1276C32.3353 27.426 38.2718 33.3613 45.5701 33.3613C52.8663 33.3613 58.8044 27.426 58.8044 20.1276C58.8044 12.8304 52.8668 6.89337 45.5701 6.89337Z" fill="white"/>
<path d="M31.5291 34.9751C23.342 34.9751 16.6816 28.3147 16.6816 20.1276C16.6816 11.9417 23.342 5.28125 31.5291 5.28125C39.7162 5.28125 46.3766 11.9417 46.3766 20.1276C46.3766 28.3147 39.7162 34.9751 31.5291 34.9751ZM31.5291 6.89337C24.2308 6.89337 18.2943 12.8298 18.2943 20.1276C18.2943 27.426 24.2308 33.3613 31.5291 33.3613C38.8264 33.3613 44.7639 27.426 44.7639 20.1276C44.7639 12.8304 38.8264 6.89337 31.5291 6.89337Z" fill="white"/>
<path d="M38.6346 48.3053C30.4475 48.3053 23.7871 41.6449 23.7871 33.4578C23.7871 25.2718 30.4475 18.6125 38.6346 18.6125C46.8206 18.6125 53.4821 25.2718 53.4821 33.4578C53.4815 41.6449 46.8206 48.3053 38.6346 48.3053ZM38.6346 20.2252C31.3373 20.2252 25.3998 26.1617 25.3998 33.4584C25.3998 40.7567 31.3373 46.6932 38.6346 46.6932C45.9319 46.6932 51.87 40.7567 51.87 33.4584C51.8694 26.1617 45.9319 20.2252 38.6346 20.2252Z" fill="white"/>
<path d="M24.7013 7.89869L23.3047 8.7041L30.8403 21.7707L32.2368 20.9653L24.7013 7.89869Z" fill="white"/>
<path d="M52.3995 7.88163L45.3672 21.1504L46.7926 21.9059L53.825 8.63711L52.3995 7.88163Z" fill="white"/>
<path d="M67.5546 32.6519H52.6738V34.2651H67.5546V32.6519Z" fill="white"/>
<path d="M24.592 32.6519H9.39062V34.2651H24.592V32.6519Z" fill="white"/>
<path d="M30.8403 45.1686L23.2988 58.2346L24.6951 59.0405L32.2366 45.9745L30.8403 45.1686Z" fill="white"/>
<path d="M47.0655 45.6089L45.6543 46.3904L52.7876 59.2727L54.1988 58.4912L47.0655 45.6089Z" fill="white"/>
</svg>
