<svg width="75" height="71" viewBox="0 0 75 71" fill="none" xmlns="http://www.w3.org/2000/svg">
<path d="M37.5006 57.7554C37.1928 57.7554 36.9098 57.5857 36.7648 57.3125L9.73401 6.87491C9.5948 6.61547 9.60287 6.30312 9.75301 6.05001C9.90487 5.79748 10.1764 5.64331 10.4709 5.64331H64.5325C64.8259 5.64331 65.0986 5.79748 65.2493 6.05001C65.4 6.30254 65.4075 6.6149 65.2683 6.87491L38.2375 57.3125C38.0925 57.5857 37.8095 57.7554 37.5006 57.7554ZM11.8659 7.31612L37.5006 55.149L63.1358 7.31612H11.8659Z" fill="white"/>
<path d="M37.4998 70.0862C37.1921 70.0862 36.909 69.9165 36.764 69.6444L0.0984779 1.23161C-0.0395811 0.972178 -0.0321184 0.658657 0.118596 0.406699C0.26931 0.154166 0.540845 0 0.835371 0H74.1648C74.4582 0 74.7297 0.154166 74.8816 0.406699C75.0323 0.658657 75.0398 0.971603 74.9005 1.23161L38.2367 69.6444C38.0917 69.9165 37.8087 70.0862 37.4998 70.0862ZM2.23206 1.67225L37.4998 67.4804L72.7687 1.67225H2.23206Z" fill="white"/>
<path d="M52.1784 27.9121H22.0781V29.5838H52.1784V27.9121Z" fill="white"/>
<path d="M38.3338 28.1726H36.6621V32.667H38.3338V28.1726Z" fill="white"/>
<path d="M37.4998 29.0086C37.3123 29.0086 37.1258 28.9459 36.9705 28.8211L10.6484 7.33566L11.7057 6.04136L37.5021 27.0954L63.796 5.8291L64.8475 7.1303L38.0256 28.8234C37.8725 28.9471 37.6862 29.0086 37.4998 29.0086Z" fill="white"/>
<path d="M48.9741 18.2387L37.1367 7.68751L25.6421 18.2306L24.5117 16.9979L36.5637 5.94336C36.8806 5.65459 37.3644 5.65114 37.6849 5.93646L50.0866 16.9898L48.9741 18.2387Z" fill="white"/>
<path d="M37.4989 48.5831C37.1923 48.5831 36.9081 48.4145 36.7632 48.1413L28.8098 33.3005C28.6718 33.0422 28.6781 32.7299 28.8299 32.4768C28.9807 32.2242 29.2522 32.0701 29.5467 32.0701H45.4534C45.7479 32.0701 46.0194 32.2242 46.1713 32.4768C46.3232 32.7299 46.3295 33.0417 46.1914 33.3005L38.237 48.1413C38.0908 48.4145 37.8078 48.5831 37.4989 48.5831ZM30.9428 33.7423L37.4989 45.9778L44.0567 33.7423H30.9428Z" fill="white"/>
<path d="M38.3338 47.7471H36.6621V56.1445H38.3338V47.7471Z" fill="white"/>
<path d="M51.7473 28.2987L45.0254 32.1653L45.8589 33.6143L52.5808 29.7477L51.7473 28.2987Z" fill="white"/>
<path d="M23.4343 28.3295L22.5859 29.77L29.1454 33.6332L29.9938 32.1927L23.4343 28.3295Z" fill="white"/>
<path d="M63.6725 5.74927L43.3516 11.4792L43.8054 13.0888L64.1263 7.35881L63.6725 5.74927Z" fill="white"/>
<path d="M12.3498 6.06581L11.8867 7.67212L30.6439 13.0793L31.1069 11.473L12.3498 6.06581Z" fill="white"/>
<path d="M37.2252 25.5605C32.6997 25.5605 29.0176 21.8789 29.0176 17.3529C29.0176 12.8274 32.6991 9.14526 37.2252 9.14526C41.7512 9.14526 45.4328 12.8268 45.4328 17.3529C45.4328 21.8789 41.7506 25.5605 37.2252 25.5605ZM37.2252 10.8175C33.6218 10.8175 30.6898 13.749 30.6898 17.3529C30.6898 20.9562 33.6224 23.8882 37.2252 23.8882C40.8285 23.8882 43.7605 20.9556 43.7605 17.3529C43.7605 13.749 40.8285 10.8175 37.2252 10.8175Z" fill="white"/>
</svg>
